<svg width="204" height="115" viewBox="0 0 204 115" fill="none" xmlns="http://www.w3.org/2000/svg">
<path d="M21.652 67.5294C23.068 67.7934 24.268 68.5134 25.252 69.6894C26.236 70.8654 26.728 72.2334 26.728 73.7934C26.728 75.0654 26.404 76.2174 25.756 77.2494C25.132 78.2574 24.208 79.0614 22.984 79.6614C21.76 80.2374 20.296 80.5254 18.592 80.5254H9.88V55.3614H18.34C20.884 55.3614 22.816 55.9494 24.136 57.1254C25.48 58.3014 26.152 59.8254 26.152 61.6974C26.152 63.2574 25.732 64.5294 24.892 65.5134C24.052 66.4734 22.972 67.1454 21.652 67.5294ZM12.4 66.4854H18.268C19.972 66.4854 21.28 66.0894 22.192 65.2974C23.128 64.4814 23.596 63.3654 23.596 61.9494C23.596 60.5574 23.128 59.4654 22.192 58.6734C21.28 57.8814 19.936 57.4854 18.16 57.4854H12.4V66.4854ZM18.412 78.4014C20.236 78.4014 21.652 77.9694 22.66 77.1054C23.692 76.2414 24.208 75.0534 24.208 73.5414C24.208 72.0294 23.668 70.8294 22.588 69.9414C21.532 69.0294 20.104 68.5734 18.304 68.5734H12.4V78.4014H18.412ZM33.8805 53.8854V80.5254H31.3605V53.8854H33.8805ZM56.615 60.8694V80.5254H54.095V77.0694C53.519 78.2934 52.631 79.2294 51.431 79.8774C50.231 80.5254 48.887 80.8494 47.399 80.8494C45.047 80.8494 43.127 80.1294 41.639 78.6894C40.151 77.2254 39.407 75.1134 39.407 72.3534V60.8694H41.891V72.0654C41.891 74.2014 42.419 75.8334 43.475 76.9614C44.555 78.0894 46.019 78.6534 47.867 78.6534C49.763 78.6534 51.275 78.0534 52.403 76.8534C53.531 75.6534 54.095 73.8894 54.095 71.5614V60.8694H56.615ZM80.1523 69.6894C80.1523 70.5534 80.1283 71.2134 80.0803 71.6694H63.7723C63.8443 73.1574 64.2043 74.4294 64.8523 75.4854C65.5003 76.5414 66.3523 77.3454 67.4083 77.8974C68.4643 78.4254 69.6163 78.6894 70.8643 78.6894C72.4963 78.6894 73.8643 78.2934 74.9683 77.5014C76.0963 76.7094 76.8403 75.6414 77.2003 74.2974H79.8643C79.3843 76.2174 78.3523 77.7894 76.7683 79.0134C75.2083 80.2134 73.2403 80.8134 70.8643 80.8134C69.0163 80.8134 67.3603 80.4054 65.8963 79.5894C64.4323 78.7494 63.2803 77.5734 62.4403 76.0614C61.6243 74.5254 61.2163 72.7374 61.2163 70.6974C61.2163 68.6574 61.6243 66.8694 62.4403 65.3334C63.2563 63.7974 64.3963 62.6214 65.8603 61.8054C67.3243 60.9894 68.9923 60.5814 70.8643 60.5814C72.7363 60.5814 74.3683 60.9894 75.7603 61.8054C77.1763 62.6214 78.2563 63.7254 79.0003 65.1174C79.7683 66.4854 80.1523 68.0094 80.1523 69.6894ZM77.5963 69.6174C77.6203 68.1534 77.3203 66.9054 76.6963 65.8734C76.0963 64.8414 75.2683 64.0614 74.2123 63.5334C73.1563 63.0054 72.0043 62.7414 70.7563 62.7414C68.8843 62.7414 67.2883 63.3414 65.9683 64.5414C64.6483 65.7414 63.9163 67.4334 63.7723 69.6174H77.5963ZM102.274 80.7774C100.618 80.7774 99.1537 80.4894 97.8817 79.9134C96.6337 79.3374 95.6497 78.5334 94.9297 77.5014C94.2097 76.4694 93.8257 75.3174 93.7777 74.0454H96.4417C96.5617 75.2694 97.1017 76.3494 98.0617 77.2854C99.0217 78.1974 100.426 78.6534 102.274 78.6534C103.978 78.6534 105.322 78.2214 106.306 77.3574C107.314 76.4694 107.818 75.3534 107.818 74.0094C107.818 72.9294 107.542 72.0654 106.99 71.4174C106.438 70.7454 105.754 70.2534 104.938 69.9414C104.122 69.6054 102.994 69.2454 101.554 68.8614C99.8737 68.4054 98.5417 67.9614 97.5577 67.5294C96.5737 67.0974 95.7337 66.4254 95.0377 65.5134C94.3417 64.6014 93.9937 63.3654 93.9937 61.8054C93.9937 60.5094 94.3297 59.3574 95.0017 58.3494C95.6737 57.3174 96.6217 56.5134 97.8457 55.9374C99.0697 55.3614 100.474 55.0734 102.058 55.0734C104.386 55.0734 106.258 55.6494 107.674 56.8014C109.114 57.9294 109.942 59.3934 110.158 61.1934H107.422C107.254 60.1614 106.69 59.2494 105.73 58.4574C104.77 57.6414 103.474 57.2334 101.842 57.2334C100.33 57.2334 99.0697 57.6414 98.0617 58.4574C97.0537 59.2494 96.5497 60.3414 96.5497 61.7334C96.5497 62.7894 96.8257 63.6414 97.3777 64.2894C97.9297 64.9374 98.6137 65.4294 99.4297 65.7654C100.27 66.1014 101.398 66.4614 102.814 66.8454C104.446 67.3014 105.766 67.7574 106.774 68.2134C107.782 68.6454 108.634 69.3174 109.33 70.2294C110.026 71.1414 110.374 72.3654 110.374 73.9014C110.374 75.0774 110.062 76.1934 109.438 77.2494C108.814 78.3054 107.89 79.1574 106.666 79.8054C105.442 80.4534 103.978 80.7774 102.274 80.7774ZM125.863 80.5254L117.763 71.7054V80.5254H115.243V53.8854H117.763V69.6534L125.683 60.8694H129.211L119.887 70.6614L129.283 80.5254H125.863ZM143.52 63.6774H145.824L136.716 87.7254H134.268L136.932 80.8494L130.02 63.6774H132.576L138.156 77.6454L143.52 63.6774Z" fill="black"/>
<g filter="url(#filter0_d_5_655)">
<path d="M31.4085 54.3195C31.4863 50.1702 32.7469 46.1293 35.0422 42.6718C37.3375 39.2144 40.5721 36.4839 44.3658 34.8015C48.1595 33.1191 52.3546 32.5546 56.4581 33.1743C60.5615 33.7941 64.4028 35.5724 67.5304 38.3002L65.8938 40.1767C63.1234 37.7605 59.7209 36.1854 56.0862 35.6364C52.4515 35.0875 48.7356 35.5875 45.3752 37.0777C42.0149 38.568 39.1498 40.9865 37.1167 44.049C35.0836 47.1116 33.967 50.6908 33.8981 54.3661L31.4085 54.3195Z" fill="black"/>
</g>
<g filter="url(#filter1_d_5_655)">
<path d="M60.7898 36.665C60.9563 27.7832 64.4308 19.2831 70.5335 12.8278C76.6362 6.37253 84.928 2.42659 93.7865 1.76207C102.645 1.09755 111.433 3.76226 118.43 9.23484C125.428 14.7074 130.131 22.594 131.621 31.3516L129.009 31.7959C127.63 23.6887 123.276 16.3879 116.798 11.3218C110.32 6.25566 102.185 3.78886 93.9847 4.40402C85.7841 5.01919 78.1082 8.67206 72.4587 14.6479C66.8093 20.6238 63.5928 28.4925 63.4387 36.7147L60.7898 36.665Z" fill="black"/>
</g>
<g filter="url(#filter2_d_5_655)">
<path d="M122.093 44.006C121.405 43.719 121.078 42.9273 121.389 42.25C124.659 35.138 130.062 29.2115 136.85 25.3216C144.027 21.2083 152.344 19.606 160.491 20.7669C168.638 21.9278 176.152 25.7859 181.85 31.7337C187.548 37.6815 191.105 45.3811 191.963 53.6197C192.82 61.8584 190.929 70.1681 186.586 77.2402C182.244 84.3122 175.696 89.7448 167.976 92.6824C160.256 95.6199 151.801 95.8956 143.942 93.4658C136.513 91.1687 130.016 86.5767 125.359 80.3551C124.912 79.7579 125.063 78.915 125.672 78.4849V78.4849C126.289 78.0497 127.14 78.2024 127.595 78.8051C131.907 84.5245 137.902 88.7464 144.752 90.8643C152.037 93.117 159.877 92.8615 167.035 90.1379C174.193 87.4143 180.263 82.3775 184.289 75.8206C188.315 69.2637 190.069 61.5593 189.274 53.9208C188.479 46.2823 185.18 39.1436 179.898 33.6291C174.615 28.1145 167.648 24.5374 160.095 23.4611C152.541 22.3848 144.83 23.8704 138.176 27.684C131.911 31.2743 126.918 36.7358 123.883 43.29C123.57 43.9665 122.781 44.293 122.093 44.006V44.006Z" fill="black"/>
</g>
<g filter="url(#filter3_d_5_655)">
<path d="M10.7557 93.7784C10.6989 93.1534 10.446 92.6676 9.99716 92.321C9.55398 91.9688 8.92045 91.7926 8.09659 91.7926C7.55114 91.7926 7.09659 91.8636 6.73295 92.0057C6.36932 92.1477 6.09659 92.3438 5.91477 92.5938C5.73295 92.8381 5.6392 93.1193 5.63352 93.4375C5.62216 93.6989 5.6733 93.929 5.78693 94.1278C5.90625 94.3267 6.0767 94.5028 6.2983 94.6562C6.52557 94.804 6.7983 94.9347 7.11648 95.0483C7.43466 95.1619 7.79261 95.2614 8.19034 95.3466L9.69034 95.6875C10.554 95.875 11.3153 96.125 11.9744 96.4375C12.6392 96.75 13.196 97.1222 13.6449 97.554C14.0994 97.9858 14.4432 98.483 14.6761 99.0455C14.9091 99.608 15.0284 100.239 15.0341 100.938C15.0284 102.04 14.75 102.986 14.1989 103.776C13.6477 104.565 12.8551 105.17 11.821 105.591C10.7926 106.011 9.55114 106.222 8.09659 106.222C6.63636 106.222 5.36364 106.003 4.27841 105.565C3.19318 105.128 2.34943 104.463 1.74716 103.571C1.14489 102.679 0.835227 101.551 0.818182 100.188H4.85795C4.89205 100.75 5.04261 101.219 5.30966 101.594C5.5767 101.969 5.94318 102.253 6.40909 102.446C6.88068 102.639 7.42614 102.736 8.04545 102.736C8.61364 102.736 9.09659 102.659 9.49432 102.506C9.89773 102.352 10.2074 102.139 10.4233 101.866C10.6392 101.594 10.75 101.281 10.7557 100.929C10.75 100.599 10.6477 100.318 10.4489 100.085C10.25 99.8466 9.94318 99.642 9.52841 99.4716C9.11932 99.2955 8.59659 99.1335 7.96023 98.9858L6.13636 98.5597C4.625 98.2131 3.43466 97.6534 2.56534 96.8807C1.69602 96.1023 1.2642 95.0511 1.26989 93.7273C1.2642 92.6477 1.55398 91.7017 2.1392 90.8892C2.72443 90.0767 3.53409 89.4432 4.56818 88.9886C5.60227 88.5341 6.78125 88.3068 8.10511 88.3068C9.45739 88.3068 10.6307 88.5369 11.625 88.9972C12.625 89.4517 13.4006 90.0909 13.9517 90.9148C14.5028 91.7386 14.7841 92.6932 14.7955 93.7784H10.7557ZM17.1648 106V88.5455H21.3835V95.5511H28.2614V88.5455H32.4716V106H28.2614V98.9858H21.3835V106H17.1648ZM57.5241 94.3636C57.5241 96.9242 57.0317 99.0947 56.0469 100.875C55.062 102.655 53.7287 104.008 52.0469 104.932C50.3726 105.856 48.4938 106.318 46.4105 106.318C44.3196 106.318 42.437 105.852 40.7628 104.92C39.0885 103.989 37.759 102.636 36.7741 100.864C35.7969 99.0833 35.3082 96.9167 35.3082 94.3636C35.3082 91.803 35.7969 89.6326 36.7741 87.8523C37.759 86.072 39.0885 84.7197 40.7628 83.7955C42.437 82.8712 44.3196 82.4091 46.4105 82.4091C48.4938 82.4091 50.3726 82.8712 52.0469 83.7955C53.7287 84.7197 55.062 86.072 56.0469 87.8523C57.0317 89.6326 57.5241 91.803 57.5241 94.3636ZM51.7741 94.3636C51.7741 92.8485 51.5582 91.5682 51.1264 90.5227C50.7022 89.4773 50.0885 88.6856 49.2855 88.1477C48.4901 87.6098 47.5317 87.3409 46.4105 87.3409C45.2969 87.3409 44.3385 87.6098 43.5355 88.1477C42.7325 88.6856 42.1151 89.4773 41.6832 90.5227C41.259 91.5682 41.0469 92.8485 41.0469 94.3636C41.0469 95.8788 41.259 97.1591 41.6832 98.2045C42.1151 99.25 42.7325 100.042 43.5355 100.58C44.3385 101.117 45.2969 101.386 46.4105 101.386C47.5317 101.386 48.4901 101.117 49.2855 100.58C50.0885 100.042 50.7022 99.25 51.1264 98.2045C51.5582 97.1591 51.7741 95.8788 51.7741 94.3636ZM60.3679 106V88.5455H67.5781C68.8849 88.5455 70.0128 88.8011 70.9616 89.3125C71.9162 89.8182 72.652 90.5256 73.169 91.4347C73.6861 92.3381 73.9446 93.3892 73.9446 94.5881C73.9446 95.7926 73.6804 96.8466 73.152 97.75C72.6293 98.6477 71.8821 99.3437 70.9105 99.8381C69.9389 100.332 68.7855 100.58 67.4503 100.58H63.0014V97.2557H66.6662C67.3026 97.2557 67.8338 97.1449 68.2599 96.9233C68.6918 96.7017 69.0185 96.392 69.2401 95.9943C69.4616 95.5909 69.5724 95.1222 69.5724 94.5881C69.5724 94.0483 69.4616 93.5824 69.2401 93.1903C69.0185 92.7926 68.6918 92.4858 68.2599 92.2699C67.8281 92.054 67.2969 91.946 66.6662 91.946H64.5866V106H60.3679ZM76.0241 106V88.5455H83.2344C84.5412 88.5455 85.669 88.8011 86.6179 89.3125C87.5724 89.8182 88.3082 90.5256 88.8253 91.4347C89.3423 92.3381 89.6009 93.3892 89.6009 94.5881C89.6009 95.7926 89.3366 96.8466 88.8082 97.75C88.2855 98.6477 87.5384 99.3437 86.5668 99.8381C85.5952 100.332 84.4418 100.58 83.1065 100.58H78.6577V97.2557H82.3224C82.9588 97.2557 83.4901 97.1449 83.9162 96.9233C84.348 96.7017 84.6747 96.392 84.8963 95.9943C85.1179 95.5909 85.2287 95.1222 85.2287 94.5881C85.2287 94.0483 85.1179 93.5824 84.8963 93.1903C84.6747 92.7926 84.348 92.4858 83.9162 92.2699C83.4844 92.054 82.9531 91.946 82.3224 91.946H80.2429V106H76.0241ZM95.8991 88.5455V106H91.6804V88.5455H95.8991ZM113.403 88.5455V106H109.823L102.877 95.9261H102.766V106H98.5476V88.5455H102.178L109.048 98.6023H109.192V88.5455H113.403ZM127.51 94.2472C127.413 93.8892 127.271 93.5739 127.084 93.3011C126.896 93.0227 126.666 92.7869 126.393 92.5938C126.121 92.4006 125.808 92.2557 125.456 92.1591C125.104 92.0568 124.717 92.0057 124.297 92.0057C123.45 92.0057 122.717 92.2102 122.098 92.6193C121.484 93.0284 121.01 93.625 120.675 94.4091C120.339 95.1875 120.172 96.1335 120.172 97.2472C120.172 98.3665 120.334 99.321 120.658 100.111C120.982 100.901 121.45 101.503 122.064 101.918C122.678 102.332 123.422 102.54 124.297 102.54C125.07 102.54 125.723 102.415 126.257 102.165C126.797 101.909 127.206 101.548 127.484 101.082C127.763 100.616 127.902 100.068 127.902 99.4375L128.686 99.5312H124.442V96.4545H131.967V98.7642C131.967 100.327 131.635 101.665 130.97 102.778C130.311 103.892 129.402 104.747 128.243 105.344C127.089 105.94 125.763 106.239 124.263 106.239C122.598 106.239 121.135 105.878 119.874 105.156C118.612 104.435 117.629 103.406 116.925 102.071C116.22 100.73 115.868 99.1392 115.868 97.2983C115.868 95.8665 116.081 94.5966 116.507 93.4886C116.933 92.375 117.527 91.4318 118.288 90.6591C119.055 89.8864 119.942 89.3011 120.947 88.9034C121.959 88.5057 123.047 88.3068 124.212 88.3068C125.223 88.3068 126.163 88.4517 127.033 88.7415C127.908 89.0312 128.68 89.4403 129.351 89.9688C130.027 90.4972 130.575 91.125 130.996 91.8523C131.416 92.5795 131.678 93.3778 131.78 94.2472H127.51Z" fill="url(#paint0_linear_5_655)"/>
</g>
<g filter="url(#filter4_d_5_655)">
<g filter="url(#filter5_d_5_655)">
<path d="M152.937 68.6946L146.712 50.8411C148.419 50.8411 149.558 50.0476 149.913 49.6509L155.783 66.4841C160.407 64.9538 170.048 61.8932 171.613 61.8932C173.178 61.8932 173.095 63.5936 172.858 64.4437C168.056 65.8607 158.06 68.8646 156.494 69.5447C154.929 70.2248 153.471 69.2613 152.937 68.6946Z" fill="#1A1A1A"/>
<path d="M138.707 46.4204H148.667C149.207 47.7682 149.056 48.4431 148.667 49.481H138.707C137.788 48.2956 137.741 47.608 138.707 46.4204Z" fill="#1A1A1A"/>
<path d="M153.292 57.3034C156.612 55.0929 163.573 49.4138 164.853 44.3809" stroke="black" stroke-width="0.355731"/>
<path d="M153.292 57.3028C156.968 55.7725 164.782 51.2156 166.632 45.2305" stroke="black" stroke-width="0.355731"/>
<path d="M166.455 45.2306L167.877 45.7407L166.988 42L163.431 44.2104L164.854 44.5505" stroke="black" stroke-width="0.355731"/>
<path d="M159.48 52.5009C157.765 54.107 156.776 54.9313 154.984 56.3215C156.674 55.405 157.617 54.844 159.292 53.8142C161.381 52.1826 162.449 51.1779 164.226 49.2475C165.227 47.9879 165.75 47.0894 166.567 45.0986L167.629 45.4568L166.848 42.3228L163.913 44.1733L165.037 44.3823C164.565 45.9566 164.199 46.7548 163.32 47.9939C161.903 49.9765 161.05 50.9305 159.48 52.5009Z" fill="#1A1A1A" stroke="#1A1A1A" stroke-width="0.0624458"/>
<path d="M154.364 57.9821C155.976 57.3806 156.968 56.9307 158.27 55.9422L160.478 63.9003L156.49 65.2425L154.364 57.9821Z" fill="#AAF0F0"/>
<path d="M159.15 55.3892C161.394 53.8281 162.113 53.2223 162.542 52.5415L165.448 62.4099L161.356 63.5963L159.15 55.3892Z" fill="#62FFE3"/>
<path d="M163.415 51.6373C165.238 50.3619 165.822 49.1505 166.633 47.4408L170.428 61.0455L166.302 62.1218L163.415 51.6373Z" fill="#FFA800"/>
<path d="M161.835 71.4148C161.835 72.4478 160.959 73.2852 159.878 73.2852C158.798 73.2852 157.922 72.4478 157.922 71.4148C157.922 70.3818 158.798 69.5444 159.878 69.5444C160.959 69.5444 161.835 70.3818 161.835 71.4148ZM158.528 71.4148C158.528 72.1275 159.133 72.7052 159.878 72.7052C160.624 72.7052 161.228 72.1275 161.228 71.4148C161.228 70.7021 160.624 70.1244 159.878 70.1244C159.133 70.1244 158.528 70.7021 158.528 71.4148Z" fill="black"/>
<path d="M172.507 68.3547C172.507 69.3877 171.631 70.2251 170.55 70.2251C169.469 70.2251 168.594 69.3877 168.594 68.3547C168.594 67.3218 169.469 66.4844 170.55 66.4844C171.631 66.4844 172.507 67.3218 172.507 68.3547ZM169.2 68.3547C169.2 69.0674 169.805 69.6452 170.55 69.6452C171.296 69.6452 171.9 69.0674 171.9 68.3547C171.9 67.6421 171.296 67.0643 170.55 67.0643C169.805 67.0643 169.2 67.6421 169.2 68.3547Z" fill="black"/>
<rect width="5.28734" height="1.20785" rx="0.603926" transform="matrix(0.954182 -0.299226 0.324575 0.94586 162.555 70.313)" fill="#0D6EFD"/>
<ellipse cx="140.05" cy="47.9358" rx="0.970725" ry="0.927975" fill="white"/>
<ellipse cx="159.879" cy="71.4292" rx="0.3698" ry="0.353514" fill="black"/>
<ellipse cx="170.542" cy="68.3662" rx="0.3698" ry="0.353514" fill="black"/>
</g>
</g>
<g filter="url(#filter6_d_5_655)">
<path d="M42 92.4348V91.6296H43.6105C44.5475 91.8053 44.9281 92.7276 45.0013 93.1668H45.0745L47.051 91.4832L49.8327 93.8257V95.0701H45.0745V95.8021C45.016 96.095 45.4893 96.3634 45.7334 96.461H48.3687C48.9543 96.1682 49.0519 95.7045 49.0275 95.5093H49.8327C49.7742 96.6806 48.8323 97.2174 48.3687 97.3394H45.587C44.65 96.988 44.2693 96.1682 44.1961 95.8021V93.24C44.1375 92.713 43.6349 92.4836 43.3909 92.4348H42Z" fill="black"/>
<path d="M51 93.3085L50.3985 93.91L47.1401 91.1028H46.8895L45.2854 92.5064L44.6838 91.9049L46.8895 90H47.1401L51 93.3085Z" fill="black"/>
<path d="M42 92.4348V91.6296H43.6105C44.5475 91.8053 44.9281 92.7276 45.0013 93.1668H45.0745L47.051 91.4832L49.8327 93.8257V95.0701H45.0745V95.8021C45.016 96.095 45.4893 96.3634 45.7334 96.461H48.3687C48.9543 96.1682 49.0519 95.7045 49.0275 95.5093H49.8327C49.7742 96.6806 48.8323 97.2174 48.3687 97.3394H45.587C44.65 96.988 44.2693 96.1682 44.1961 95.8021V93.24C44.1375 92.713 43.6349 92.4836 43.3909 92.4348H42Z" stroke="black" stroke-width="0.0146406"/>
<path d="M51 93.3085L50.3985 93.91L47.1401 91.1028H46.8895L45.2854 92.5064L44.6838 91.9049L46.8895 90H47.1401L51 93.3085Z" stroke="black" stroke-width="0.0146406"/>
<circle cx="45.3355" cy="98.3213" r="0.601538" fill="black"/>
<circle cx="48.7442" cy="98.3213" r="0.601538" fill="black"/>
<rect x="46.2378" y="92.8071" width="0.701795" height="0.701795" fill="white"/>
<rect x="46.2378" y="93.7095" width="0.701795" height="0.701795" fill="white"/>
<rect x="47.1401" y="92.8071" width="0.701795" height="0.701795" fill="white"/>
<rect x="47.1401" y="93.7095" width="0.701795" height="0.701795" fill="white"/>
</g>
<defs>
<filter id="filter0_d_5_655" x="27.4084" y="31.9297" width="44.1219" height="29.4365" filterUnits="userSpaceOnUse" color-interpolation-filters="sRGB">
<feFlood flood-opacity="0" result="BackgroundImageFix"/>
<feColorMatrix in="SourceAlpha" type="matrix" values="0 0 0 0 0 0 0 0 0 0 0 0 0 0 0 0 0 0 127 0" result="hardAlpha"/>
<feOffset dy="3"/>
<feGaussianBlur stdDeviation="2"/>
<feComposite in2="hardAlpha" operator="out"/>
<feColorMatrix type="matrix" values="0 0 0 0 0 0 0 0 0 0 0 0 0 0 0 0 0 0 0.55 0"/>
<feBlend mode="normal" in2="BackgroundImageFix" result="effect1_dropShadow_5_655"/>
<feBlend mode="normal" in="SourceGraphic" in2="effect1_dropShadow_5_655" result="shape"/>
</filter>
<filter id="filter1_d_5_655" x="56.7898" y="0.662109" width="78.8313" height="43.0527" filterUnits="userSpaceOnUse" color-interpolation-filters="sRGB">
<feFlood flood-opacity="0" result="BackgroundImageFix"/>
<feColorMatrix in="SourceAlpha" type="matrix" values="0 0 0 0 0 0 0 0 0 0 0 0 0 0 0 0 0 0 127 0" result="hardAlpha"/>
<feOffset dy="3"/>
<feGaussianBlur stdDeviation="2"/>
<feComposite in2="hardAlpha" operator="out"/>
<feColorMatrix type="matrix" values="0 0 0 0 0 0 0 0 0 0 0 0 0 0 0 0 0 0 0.55 0"/>
<feBlend mode="normal" in2="BackgroundImageFix" result="effect1_dropShadow_5_655"/>
<feBlend mode="normal" in="SourceGraphic" in2="effect1_dropShadow_5_655" result="shape"/>
</filter>
<filter id="filter2_d_5_655" x="117.271" y="19.3989" width="78.8934" height="82.7075" filterUnits="userSpaceOnUse" color-interpolation-filters="sRGB">
<feFlood flood-opacity="0" result="BackgroundImageFix"/>
<feColorMatrix in="SourceAlpha" type="matrix" values="0 0 0 0 0 0 0 0 0 0 0 0 0 0 0 0 0 0 127 0" result="hardAlpha"/>
<feOffset dy="3"/>
<feGaussianBlur stdDeviation="2"/>
<feComposite in2="hardAlpha" operator="out"/>
<feColorMatrix type="matrix" values="0 0 0 0 0 0 0 0 0 0 0 0 0 0 0 0 0 0 0.55 0"/>
<feBlend mode="normal" in2="BackgroundImageFix" result="effect1_dropShadow_5_655"/>
<feBlend mode="normal" in="SourceGraphic" in2="effect1_dropShadow_5_655" result="shape"/>
</filter>
<filter id="filter3_d_5_655" x="0.468541" y="82.4092" width="131.848" height="25.1331" filterUnits="userSpaceOnUse" color-interpolation-filters="sRGB">
<feFlood flood-opacity="0" result="BackgroundImageFix"/>
<feColorMatrix in="SourceAlpha" type="matrix" values="0 0 0 0 0 0 0 0 0 0 0 0 0 0 0 0 0 0 127 0" result="hardAlpha"/>
<feOffset dy="0.874242"/>
<feGaussianBlur stdDeviation="0.174848"/>
<feComposite in2="hardAlpha" operator="out"/>
<feColorMatrix type="matrix" values="0 0 0 0 0 0 0 0 0 0 0 0 0 0 0 0 0 0 0.25 0"/>
<feBlend mode="normal" in2="BackgroundImageFix" result="effect1_dropShadow_5_655"/>
<feBlend mode="normal" in="SourceGraphic" in2="effect1_dropShadow_5_655" result="shape"/>
</filter>
<filter id="filter4_d_5_655" x="136" y="41.7188" width="38.9895" height="36.5664" filterUnits="userSpaceOnUse" color-interpolation-filters="sRGB">
<feFlood flood-opacity="0" result="BackgroundImageFix"/>
<feColorMatrix in="SourceAlpha" type="matrix" values="0 0 0 0 0 0 0 0 0 0 0 0 0 0 0 0 0 0 127 0" result="hardAlpha"/>
<feOffset dy="3"/>
<feGaussianBlur stdDeviation="1"/>
<feComposite in2="hardAlpha" operator="out"/>
<feColorMatrix type="matrix" values="0 0 0 0 0 0 0 0 0 0 0 0 0 0 0 0 0 0 0.25 0"/>
<feBlend mode="normal" in2="BackgroundImageFix" result="effect1_dropShadow_5_655"/>
<feBlend mode="normal" in="SourceGraphic" in2="effect1_dropShadow_5_655" result="shape"/>
</filter>
<filter id="filter5_d_5_655" x="137.75" y="41.7188" width="35.4891" height="32.066" filterUnits="userSpaceOnUse" color-interpolation-filters="sRGB">
<feFlood flood-opacity="0" result="BackgroundImageFix"/>
<feColorMatrix in="SourceAlpha" type="matrix" values="0 0 0 0 0 0 0 0 0 0 0 0 0 0 0 0 0 0 127 0" result="hardAlpha"/>
<feOffset dy="0.249783"/>
<feGaussianBlur stdDeviation="0.124892"/>
<feComposite in2="hardAlpha" operator="out"/>
<feColorMatrix type="matrix" values="0 0 0 0 0 0 0 0 0 0 0 0 0 0 0 0 0 0 0.25 0"/>
<feBlend mode="normal" in2="BackgroundImageFix" result="effect1_dropShadow_5_655"/>
<feBlend mode="normal" in="SourceGraphic" in2="effect1_dropShadow_5_655" result="shape"/>
</filter>
<filter id="filter6_d_5_655" x="41.1927" y="89.9902" width="10.6125" height="10.7326" filterUnits="userSpaceOnUse" color-interpolation-filters="sRGB">
<feFlood flood-opacity="0" result="BackgroundImageFix"/>
<feColorMatrix in="SourceAlpha" type="matrix" values="0 0 0 0 0 0 0 0 0 0 0 0 0 0 0 0 0 0 127 0" result="hardAlpha"/>
<feOffset dy="1"/>
<feGaussianBlur stdDeviation="0.4"/>
<feComposite in2="hardAlpha" operator="out"/>
<feColorMatrix type="matrix" values="0 0 0 0 0 0 0 0 0 0 0 0 0 0 0 0 0 0 0.53 0"/>
<feBlend mode="normal" in2="BackgroundImageFix" result="effect1_dropShadow_5_655"/>
<feBlend mode="normal" in="SourceGraphic" in2="effect1_dropShadow_5_655" result="shape"/>
</filter>
<linearGradient id="paint0_linear_5_655" x1="0" y1="95" x2="143" y2="95" gradientUnits="userSpaceOnUse">
<stop stop-color="#2792CE"/>
<stop offset="1" stop-color="#144A68"/>
</linearGradient>
</defs>
</svg>
